<?xml version="1.0" standalone="no"?>
<!DOCTYPE svg PUBLIC "-//W3C//DTD SVG 20010904//EN"
 "http://www.w3.org/TR/2001/REC-SVG-20010904/DTD/svg10.dtd">
<svg version="1.0" xmlns="http://www.w3.org/2000/svg"
 width="1024.000000pt" height="1024.000000pt" viewBox="0 0 1024.000000 1024.000000"
 preserveAspectRatio="xMidYMid meet">

<g transform="translate(0.000000,1024.000000) scale(0.100000,-0.100000)"
fill="#000000" stroke="none">
<path d="M4942 10229 c-589 -80 -1058 -511 -1193 -1098 -29 -123 -36 -375 -15
-501 50 -309 180 -565 395 -781 190 -190 400 -308 666 -376 134 -34 392 -43
541 -20 300 48 558 180 774 397 202 201 324 430 387 721 26 120 25 419 -1 539
-61 281 -188 517 -386 716 -197 199 -433 326 -708 384 -114 24 -350 34 -460
19z"/>
<path d="M4905 6506 c-223 -37 -392 -106 -585 -237 -599 -408 -779 -1233 -407
-1862 200 -338 542 -581 932 -662 109 -23 330 -31 449 -16 450 57 838 324
1063 731 49 90 102 233 131 353 23 100 26 132 27 302 0 147 -4 209 -18 275
-121 564 -537 983 -1097 1105 -103 22 -389 29 -495 11z"/>
<path d="M4930 2793 c-409 -62 -756 -282 -980 -620 -110 -166 -182 -353 -216
-563 -21 -126 -14 -378 15 -501 138 -601 621 -1034 1228 -1100 569 -62 1128
243 1391 758 99 195 140 357 148 583 15 405 -123 758 -405 1040 -213 213 -465
344 -760 395 -76 14 -352 19 -421 8z"/>
</g>
</svg>
